<svg xmlns="http://www.w3.org/2000/svg" xmlns:xlink="http://www.w3.org/1999/xlink" width="2000" zoomAndPan="magnify" viewBox="0 0 1500 1499.999933" height="2000" preserveAspectRatio="xMidYMid meet" version="1.0"><defs><g/><clipPath id="eec7f72529"><path d="M 764.507812 697.484375 L 777.714844 697.484375 L 777.714844 718.6875 L 764.507812 718.6875 Z M 764.507812 697.484375 " clip-rule="nonzero"/></clipPath><clipPath id="978186a738"><path d="M 771.109375 697.484375 C 767.464844 697.484375 764.507812 702.222656 764.507812 708.066406 C 764.507812 713.910156 767.464844 718.644531 771.109375 718.644531 C 774.757812 718.644531 777.714844 713.910156 777.714844 708.066406 C 777.714844 702.222656 774.757812 697.484375 771.109375 697.484375 Z M 771.109375 697.484375 " clip-rule="nonzero"/></clipPath><clipPath id="cf517a30c7"><path d="M 0.507812 0.484375 L 13.714844 0.484375 L 13.714844 21.6875 L 0.507812 21.6875 Z M 0.507812 0.484375 " clip-rule="nonzero"/></clipPath><clipPath id="1926a5b795"><path d="M 7.109375 0.484375 C 3.464844 0.484375 0.507812 5.222656 0.507812 11.066406 C 0.507812 16.910156 3.464844 21.644531 7.109375 21.644531 C 10.757812 21.644531 13.714844 16.910156 13.714844 11.066406 C 13.714844 5.222656 10.757812 0.484375 7.109375 0.484375 Z M 7.109375 0.484375 " clip-rule="nonzero"/></clipPath><clipPath id="8fe15d2454"><rect x="0" width="14" y="0" height="22"/></clipPath><clipPath id="9849389cdb"><path d="M 956.816406 697.484375 L 970.023438 697.484375 L 970.023438 718.6875 L 956.816406 718.6875 Z M 956.816406 697.484375 " clip-rule="nonzero"/></clipPath><clipPath id="0888f0a789"><path d="M 963.417969 697.484375 C 959.773438 697.484375 956.816406 702.222656 956.816406 708.066406 C 956.816406 713.910156 959.773438 718.644531 963.417969 718.644531 C 967.066406 718.644531 970.023438 713.910156 970.023438 708.066406 C 970.023438 702.222656 967.066406 697.484375 963.417969 697.484375 Z M 963.417969 697.484375 " clip-rule="nonzero"/></clipPath><clipPath id="1d72172322"><path d="M 0.816406 0.484375 L 14.023438 0.484375 L 14.023438 21.6875 L 0.816406 21.6875 Z M 0.816406 0.484375 " clip-rule="nonzero"/></clipPath><clipPath id="f6666636af"><path d="M 7.417969 0.484375 C 3.773438 0.484375 0.816406 5.222656 0.816406 11.066406 C 0.816406 16.910156 3.773438 21.644531 7.417969 21.644531 C 11.066406 21.644531 14.023438 16.910156 14.023438 11.066406 C 14.023438 5.222656 11.066406 0.484375 7.417969 0.484375 Z M 7.417969 0.484375 " clip-rule="nonzero"/></clipPath><clipPath id="10a0731259"><rect x="0" width="15" y="0" height="22"/></clipPath></defs><g clip-path="url(#eec7f72529)"><g clip-path="url(#978186a738)"><g transform="matrix(1, 0, 0, 1, 764, 697)"><g clip-path="url(#8fe15d2454)"><g clip-path="url(#cf517a30c7)"><g clip-path="url(#1926a5b795)"><path fill="#1800ad" d="M 0.507812 0.484375 L 13.714844 0.484375 L 13.714844 21.636719 L 0.507812 21.636719 Z M 0.507812 0.484375 " fill-opacity="1" fill-rule="nonzero"/></g></g></g></g></g></g><g clip-path="url(#9849389cdb)"><g clip-path="url(#0888f0a789)"><g transform="matrix(1, 0, 0, 1, 956, 697)"><g clip-path="url(#10a0731259)"><g clip-path="url(#1d72172322)"><g clip-path="url(#f6666636af)"><path fill="#1800ad" d="M 0.816406 0.484375 L 14.023438 0.484375 L 14.023438 21.636719 L 0.816406 21.636719 Z M 0.816406 0.484375 " fill-opacity="1" fill-rule="nonzero"/></g></g></g></g></g></g><path fill="#1800ad" d="M 807.742188 749.394531 C 812.074219 749.394531 815.617188 752.898438 815.617188 757.269531 C 815.617188 758.726562 815.183594 760.0625 814.515625 761.207031 C 814.515625 761.207031 811.679688 760.417969 807.742188 760.417969 C 803.804688 760.417969 800.972656 761.207031 800.972656 761.207031 C 800.300781 760.0625 799.867188 758.726562 799.867188 757.269531 C 799.867188 752.898438 803.414062 749.394531 807.742188 749.394531 Z M 831.367188 749.394531 C 835.738281 749.394531 839.242188 752.898438 839.242188 757.269531 C 839.242188 758.726562 838.808594 760.0625 838.140625 761.207031 C 838.140625 761.207031 835.304688 760.417969 831.367188 760.417969 C 827.429688 760.417969 824.597656 761.207031 824.597656 761.207031 C 823.925781 760.0625 823.492188 758.726562 823.492188 757.269531 C 823.492188 752.898438 826.996094 749.394531 831.367188 749.394531 Z M 819.554688 803.335938 C 834.203125 803.335938 847.238281 794.042969 851.960938 780.183594 L 846.765625 778.375 C 842.789062 790.027344 831.839844 797.824219 819.554688 797.824219 C 807.269531 797.824219 796.324219 790.027344 792.347656 778.375 L 787.148438 780.183594 C 791.875 794.042969 804.910156 803.335938 819.554688 803.335938 Z M 819.554688 803.335938 " fill-opacity="1" fill-rule="nonzero"/><g fill="#1800ad" fill-opacity="1"><g transform="translate(521.000619, 798.996535)"><g><path d="M 7.671875 0 L 7.671875 -63.890625 L 19.984375 -63.890625 L 42.71875 -30.765625 L 65.359375 -63.890625 L 77.59375 -63.890625 L 77.59375 0 L 63.171875 0 L 63.171875 -38.421875 L 47.65625 -15.796875 L 37.609375 -15.796875 L 22.09375 -38.515625 L 22.09375 0 Z M 7.671875 0 "/></g></g></g><g fill="#1800ad" fill-opacity="1"><g transform="translate(606.242639, 798.996535)"><g><path d="M 7.671875 0 L 7.671875 -63.890625 L 22.1875 -63.890625 L 22.1875 0 Z M 7.671875 0 "/></g></g></g><g fill="#1800ad" fill-opacity="1"><g transform="translate(636.086471, 798.996535)"><g><path d="M 37.421875 1.28125 C 30.910156 1.28125 25.128906 -0.132812 20.078125 -2.96875 C 15.023438 -5.800781 11.066406 -9.710938 8.203125 -14.703125 C 5.347656 -19.691406 3.921875 -25.441406 3.921875 -31.953125 C 3.921875 -38.460938 5.335938 -44.210938 8.171875 -49.203125 C 11.003906 -54.191406 14.925781 -58.097656 19.9375 -60.921875 C 24.957031 -63.753906 30.695312 -65.171875 37.15625 -65.171875 C 42.320312 -65.171875 47.097656 -64.257812 51.484375 -62.4375 C 55.867188 -60.613281 59.597656 -58.039062 62.671875 -54.71875 C 65.742188 -51.40625 67.914062 -47.5 69.1875 -43 L 53.578125 -43 C 52.054688 -45.789062 49.878906 -47.960938 47.046875 -49.515625 C 44.222656 -51.066406 41.015625 -51.84375 37.421875 -51.84375 C 33.710938 -51.84375 30.425781 -50.988281 27.5625 -49.28125 C 24.707031 -47.582031 22.472656 -45.242188 20.859375 -42.265625 C 19.242188 -39.285156 18.4375 -35.847656 18.4375 -31.953125 C 18.4375 -28.117188 19.226562 -24.707031 20.8125 -21.71875 C 22.394531 -18.738281 24.613281 -16.378906 27.46875 -14.640625 C 30.332031 -12.910156 33.710938 -12.046875 37.609375 -12.046875 C 42.296875 -12.046875 46.191406 -13.234375 49.296875 -15.609375 C 52.398438 -17.984375 54.40625 -21.117188 55.3125 -25.015625 L 34.59375 -25.015625 L 34.59375 -36.234375 L 70.65625 -36.234375 C 71.019531 -30.753906 70.484375 -25.734375 69.046875 -21.171875 C 67.617188 -16.609375 65.429688 -12.640625 62.484375 -9.265625 C 59.535156 -5.890625 55.941406 -3.285156 51.703125 -1.453125 C 47.472656 0.367188 42.710938 1.28125 37.421875 1.28125 Z M 37.421875 1.28125 "/></g></g></g><g fill="#1800ad" fill-opacity="1"><g transform="translate(710.559166, 798.996535)"><g><path d="M 7.671875 0 L 7.671875 -63.890625 L 19.984375 -63.890625 L 48.203125 -25.015625 L 48.203125 -63.890625 L 62.625 -63.890625 L 62.625 0 L 50.296875 0 L 22.09375 -39.15625 L 22.09375 0 Z M 7.671875 0 "/></g></g></g><g fill="#1800ad" fill-opacity="1"><g transform="translate(856.499674, 798.996535)"><g><path d="M 7.671875 0 L 7.671875 -63.890625 L 19.984375 -63.890625 L 48.203125 -25.015625 L 48.203125 -63.890625 L 62.625 -63.890625 L 62.625 0 L 50.296875 0 L 22.09375 -39.15625 L 22.09375 0 Z M 7.671875 0 "/></g></g></g><g fill="#1800ad" fill-opacity="1"><g transform="translate(926.77415, 798.996535)"><g><path d="M 4.65625 0 L 4.65625 -10.21875 L 31.03125 -32.859375 C 33.164062 -34.804688 34.765625 -36.660156 35.828125 -38.421875 C 36.890625 -40.191406 37.421875 -42.050781 37.421875 -44 C 37.421875 -46.613281 36.566406 -48.726562 34.859375 -50.34375 C 33.160156 -51.957031 30.910156 -52.765625 28.109375 -52.765625 C 25.253906 -52.765625 22.957031 -51.863281 21.21875 -50.0625 C 19.488281 -48.269531 18.5625 -45.734375 18.4375 -42.453125 L 5.203125 -42.453125 C 5.390625 -49.566406 7.550781 -55.128906 11.6875 -59.140625 C 15.820312 -63.160156 21.390625 -65.171875 28.390625 -65.171875 C 32.953125 -65.171875 36.953125 -64.316406 40.390625 -62.609375 C 43.828125 -60.910156 46.519531 -58.523438 48.46875 -55.453125 C 50.414062 -52.378906 51.390625 -48.773438 51.390625 -44.640625 C 51.390625 -41.109375 50.503906 -37.546875 48.734375 -33.953125 C 46.972656 -30.367188 43.929688 -26.78125 39.609375 -23.1875 L 27.5625 -12.6875 L 52.578125 -12.6875 L 52.578125 0 Z M 4.65625 0 "/></g></g></g><g fill="#1800ad" fill-opacity="1"><g transform="translate(782.993402, 727.085485)"><g><path d="M 21.71875 -18.3125 C 23.007812 -18.101562 24.191406 -17.570312 25.265625 -16.71875 C 26.335938 -15.875 27.1875 -14.820312 27.8125 -13.5625 C 28.445312 -12.300781 28.765625 -10.957031 28.765625 -9.53125 C 28.765625 -7.726562 28.304688 -6.101562 27.390625 -4.65625 C 26.472656 -3.21875 25.132812 -2.082031 23.375 -1.25 C 21.625 -0.414062 19.5625 0 17.1875 0 L 3.921875 0 L 3.921875 -35.546875 L 16.671875 -35.546875 C 19.085938 -35.546875 21.144531 -35.144531 22.84375 -34.34375 C 24.539062 -33.550781 25.816406 -32.472656 26.671875 -31.109375 C 27.523438 -29.742188 27.953125 -28.210938 27.953125 -26.515625 C 27.953125 -24.410156 27.378906 -22.671875 26.234375 -21.296875 C 25.097656 -19.921875 23.59375 -18.925781 21.71875 -18.3125 Z M 8.5625 -20.203125 L 16.375 -20.203125 C 18.550781 -20.203125 20.234375 -20.707031 21.421875 -21.71875 C 22.609375 -22.738281 23.203125 -24.148438 23.203125 -25.953125 C 23.203125 -27.753906 22.609375 -29.164062 21.421875 -30.1875 C 20.234375 -31.207031 18.515625 -31.71875 16.265625 -31.71875 L 8.5625 -31.71875 Z M 16.78125 -3.828125 C 19.09375 -3.828125 20.894531 -4.367188 22.1875 -5.453125 C 23.476562 -6.546875 24.125 -8.0625 24.125 -10 C 24.125 -11.96875 23.441406 -13.519531 22.078125 -14.65625 C 20.722656 -15.800781 18.90625 -16.375 16.625 -16.375 L 8.5625 -16.375 L 8.5625 -3.828125 Z M 16.78125 -3.828125 "/></g></g></g><g fill="#1800ad" fill-opacity="1"><g transform="translate(814.249205, 727.085485)"><g><path d="M 24.9375 -7.90625 L 9.4375 -7.90625 L 6.578125 0 L 1.6875 0 L 14.53125 -35.34375 L 19.890625 -35.34375 L 32.6875 0 L 27.796875 0 Z M 23.609375 -11.671875 L 17.1875 -29.625 L 10.765625 -11.671875 Z M 23.609375 -11.671875 "/></g></g></g><g fill="#1800ad" fill-opacity="1"><g transform="translate(848.615284, 727.085485)"><g><path d="M 31.875 0 L 27.234375 0 L 8.5625 -28.3125 L 8.5625 0 L 3.921875 0 L 3.921875 -35.59375 L 8.5625 -35.59375 L 27.234375 -7.34375 L 27.234375 -35.59375 L 31.875 -35.59375 Z M 31.875 0 "/></g></g></g><g fill="#1800ad" fill-opacity="1"><g transform="translate(884.46003, 727.085485)"><g><path d="M 15 -35.546875 C 18.875 -35.546875 22.226562 -34.820312 25.0625 -33.375 C 27.90625 -31.9375 30.082031 -29.875 31.59375 -27.1875 C 33.101562 -24.5 33.859375 -21.335938 33.859375 -17.703125 C 33.859375 -14.054688 33.101562 -10.898438 31.59375 -8.234375 C 30.082031 -5.566406 27.90625 -3.523438 25.0625 -2.109375 C 22.226562 -0.703125 18.875 0 15 0 L 3.921875 0 L 3.921875 -35.546875 Z M 15 -3.828125 C 19.582031 -3.828125 23.082031 -5.039062 25.5 -7.46875 C 27.914062 -9.90625 29.125 -13.316406 29.125 -17.703125 C 29.125 -22.117188 27.90625 -25.566406 25.46875 -28.046875 C 23.039062 -30.523438 19.550781 -31.765625 15 -31.765625 L 8.5625 -31.765625 L 8.5625 -3.828125 Z M 15 -3.828125 "/></g></g></g><g fill="#1800ad" fill-opacity="1"><g transform="translate(920.508721, 727.085485)"><g><path d="M 28.8125 -35.546875 L 17.234375 -13.40625 L 17.234375 0 L 12.59375 0 L 12.59375 -13.40625 L 0.96875 -35.546875 L 6.125 -35.546875 L 14.890625 -17.546875 L 23.65625 -35.546875 Z M 28.8125 -35.546875 "/></g></g></g></svg>